# xmcd
#
# Track frame offsets: 
#        150
#        26127
#        46182
#        68072
#        90362
#        114422
#        138027
#        156697
#        183390
#        205707
#        223345
#        244070
#        277867
#
# Disc length: 4562 seconds
#
# Revision: 2
# Processed by: cddbd v1.5.2PL0 Copyright (c) Steve Scherf et al.
# Submitted via: ExactAudioCopy v0.99pb4
#
DISCID=b411d00d
DTITLE=Keiko Matsui - The Ring
DYEAR=2002
DGENRE=Jazz
TTITLE0=Steps Of Maya
TTITLE1=Venus Of The Sea
TTITLE2=Moon Circle
TTITLE3=Prism
TTITLE4=The Next Plateau
TTITLE5=Messenger
TTITLE6=Deity In The Silence
TTITLE7=The Ring
TTITLE8=White Owl
TTITLE9=Precious Time
TTITLE10=The Next Plateau (Solo Piano)
TTITLE11=Prism (Solo Piano)
TTITLE12=Extra Video Track
EXTD=
EXTT0=
EXTT1=
EXTT2=
EXTT3=
EXTT4=
EXTT5=
EXTT6=
EXTT7=
EXTT8=
EXTT9=
EXTT10=
EXTT11=
EXTT12=
PLAYORDER=
